#!OML:ASF E:\acrobat2\Project_11_07_03\Capture day 1\Session 1\Acrobat.ASF
:FULLY-SPECIFIED
:DEGREES
233
root 10.8486 21.4462 16.3226 6.27677 0.294915 7.25269
lowerback -8.48433 -2.9537 -8.16144
upperback -1.70492 -3.15478 -1.19542
thorax 3.34852 -1.64107 2.96525
lowerneck 9.12973 -15.2037 -11.1869
upperneck -0.438955 -21.2855 11.0379
head 0.800847 -10.876 4.96008
rclavicle -3.51709e-014 5.56597e-015
rhumerus -36.9143 6.69239 -90.8459
rradius 25.0585
rwrist 7.61045
rhand -5.74762 -41.9423
rfingers 7.12502
rthumb 20.0749 -70.9252
lclavicle -3.51709e-014 5.56597e-015
lhumerus -31.9112 4.17954 87.6303
lradius 20.9613
lwrist 1.32489
lhand 0.586016 -13.7854
lfingers 7.12502
lthumb 26.1516 14.4335
rfemur 5.85841 6.99928 7.51752
rtibia -4.20102
rfoot -17.4035 -15.413
rtoes 15.8077
lfemur 1.64997 -0.667721 -23.6085
ltibia 0.129283
lfoot -11.4213 -3.65287
ltoes 9.49152
234
root 10.8473 21.4469 16.324 6.29607 0.296425 7.2135
lowerback -8.51958 -2.95147 -8.11896
upperback -1.68603 -3.15124 -1.18853
thorax 3.38577 -1.64065 2.94712
lowerneck 9.15051 -15.1684 -11.1892
upperneck -0.551121 -21.2336 11.1037
head 0.765947 -10.852 4.98874
rclavicle 1.35391e-014 -1.02374e-014
rhumerus -36.8563 6.67843 -90.8445
rradius 25.0706
rwrist 7.61205
rhand -5.63492 -42.0008
rfingers 7.12502
rthumb 20.1833 -70.9723
lclavicle 1.35391e-014 -1.02374e-014
lhumerus -31.8805 4.15304 87.6339
lradius 20.9824
lwrist 1.34466
lhand 0.529907 -13.9091
lfingers 7.12502
lthumb 26.0978 14.3177
rfemur 5.84766 7.0394 7.57938
rtibia -4.20854
rfoot -17.415 -15.4507
rtoes 15.6451
lfemur 1.63638 -0.66813 -23.5563
ltibia 0.125987
lfoot -11.4007 -3.62861
ltoes 9.53422
235
root 10.8459 21.4476 16.3253 6.30858 0.296981 7.18022
lowerback -8.5426 -2.94816 -8.08173
upperback -1.67279 -3.14723 -1.1861
thorax 3.41024 -1.63944 2.92805
lowerneck 9.17733 -15.122 -11.1726
upperneck -0.680262 -21.1642 11.1583
head 0.719922 -10.8191 5.0146
rclavicle -3.48991e-014 -3.54831e-014
rhumerus -36.815 6.65878 -90.8492
rradius 25.0844
rwrist 7.6158
rhand -5.55467 -42.0393
rfingers 7.12502
rthumb 20.2604 -71.0026
lclavicle -3.48991e-014 -3.54831e-014
lhumerus -31.8536 4.10867 87.6404
lradius 20.9931
lwrist 1.37747
lhand 0.493979 -14.0182
lfingers 7.12502
lthumb 26.0634 14.2137
rfemur 5.84459 7.08642 7.63659
rtibia -4.21526
rfoot -17.4357 -15.4893
rtoes 15.5831
lfemur 1.62987 -0.660729 -23.5095
ltibia 0.124976
lfoot -11.3809 -3.61216
ltoes 9.50349
236
root 10.8446 21.4481 16.3265 6.31392 0.296339 7.16482
lowerback -8.54719 -2.9442 -8.06012
upperback -1.66806 -3.14307 -1.19038
thorax 3.41594 -1.63744 2.91178
lowerneck 9.22797 -15.0502 -11.1312
upperneck -0.845282 -21.0578 11.2028
head 0.651807 -10.7682 5.04089
rclavicle 3.00771e-014 4.19436e-014
rhumerus -36.7952 6.6354 -90.8571
rradius 25.1001
rwrist 7.62598
rhand -5.52284 -42.051
rfingers 7.12502
rthumb 20.291 -71.0111
lclavicle 3.00771e-014 4.19436e-014
lhumerus -31.8378 4.04724 87.6515
lradius 20.9983
lwrist 1.42155
lhand 0.482509 -14.0886
lfingers 7.12502
lthumb 26.0525 14.1449
rfemur 5.84885 7.12787 7.67065
rtibia -4.22285
rfoot -17.4623 -15.517
rtoes 15.658
lfemur 1.6285 -0.637659 -23.4842
ltibia 0.130278
lfoot -11.3518 -3.60232
ltoes 9.37347
237
root 10.8434 21.4487 16.3273 6.31588 0.294229 7.16561
lowerback -8.53826 -2.93705 -8.05038
upperback -1.67087 -3.13514 -1.20155
thorax 3.406 -1.63297 2.89625
lowerneck 9.20945 -14.959 -11.0331
upperneck -0.949488 -20.9165 11.1634
head 0.593771 -10.6964 5.03028
rclavicle 1.02747e-014 4.96962e-016
rhumerus -36.7953 6.6025 -90.864
rradius 25.1181
rwrist 7.64285
rhand -5.5447 -42.0349
rfingers 7.12502
rthumb 20.27 -70.9972
lclavicle 1.02747e-014 4.96962e-016
lhumerus -31.8319 3.95263 87.6734
lradius 21.002
lwrist 1.48358
lhand 0.492056 -14.1106
lfingers 7.12502
lthumb 26.0616 14.1215
rfemur 5.85465 7.16738 7.68291
rtibia -4.23279
rfoot -17.492 -15.5392
rtoes 15.8347
lfemur 1.62679 -0.607334 -23.4801
ltibia 0.142372
lfoot -11.3193 -3.5896
ltoes 9.15286
238
root 10.8423 21.4491 16.3277 6.3187 0.290254 7.16841
lowerback -8.52016 -2.92376 -8.03696
upperback -1.68225 -3.12068 -1.216
thorax 3.38087 -1.62452 2.87678
lowerneck 9.12447 -14.8409 -10.8826
upperneck -0.990832 -20.7317 11.0496
head 0.54683 -10.5996 4.98626
rclavicle -1.18572e-014 -1.37161e-014
rhumerus -36.8143 6.55936 -90.8696
rradius 25.1376
rwrist 7.65387
rhand -5.61664 -41.9897
rfingers 7.12502
rthumb 20.2008 -70.9593
lclavicle -1.18572e-014 -1.37161e-014
lhumerus -31.8401 3.81984 87.7079
lradius 21.0097
lwrist 1.56244
lhand 0.516731 -14.0899
lfingers 7.12502
lthumb 26.0852 14.1388
rfemur 5.85579 7.21232 7.69159
rtibia -4.24505
rfoot -17.5178 -15.5653
rtoes 16.056
lfemur 1.62548 -0.576383 -23.4803
ltibia 0.150561
lfoot -11.2844 -3.56547
ltoes 8.86123
239
root 10.8414 21.4496 16.3281 6.32391 0.282342 7.16855
lowerback -8.49969 -2.90289 -8.01545
upperback -1.70036 -3.09745 -1.23195
thorax 3.3459 -1.61115 2.85269
lowerneck 8.90032 -14.7034 -10.6753
upperneck -0.88792 -20.5125 10.8288
head 0.544044 -10.48 4.88825
rclavicle -1.68656e-015 -1.21259e-014
rhumerus -36.8493 6.49882 -90.871
rradius 25.1589
rwrist 7.65788
rhand -5.71835 -41.9233
rfingers 7.12502
rthumb 20.1031 -70.9032
lclavicle -1.68656e-015 -1.21259e-014
lhumerus -31.8619 3.65218 87.7543
lradius 21.0224
lwrist 1.65511
lhand 0.533182 -14.047
lfingers 7.12502
lthumb 26.101 14.1793
rfemur 5.85088 7.25958 7.70187
rtibia -4.25739
rfoot -17.5296 -15.5961
rtoes 16.2271
lfemur 1.63607 -0.564383 -23.4802
ltibia 0.127175
lfoot -11.2464 -3.51808
ltoes 8.66709
240
root 10.8404 21.4498 16.3285 6.3305 0.268018 7.16552
lowerback -8.48322 -2.87359 -7.98774
upperback -1.71902 -3.06317 -1.24917
thorax 3.31103 -1.59224 2.82504
lowerneck 8.65611 -14.5231 -10.4472
upperneck -0.788278 -20.2327 10.6176
head 0.536968 -10.33 4.79157
rclavicle 3.17124e-014 -2.40529e-014
rhumerus -36.8899 6.405 -90.8626
rradius 25.181
rwrist 7.67337
rhand -5.82116 -41.8523
rfingers 7.12502
rthumb 20.0043 -70.8425
lclavicle 3.17124e-014 -2.40529e-014
lhumerus -31.8894 3.44862 87.8132
lradius 21.046
lwrist 1.76526
lhand 0.530545 -14.0021
lfingers 7.12502
lthumb 26.0984 14.2246
rfemur 5.84148 7.31141 7.71535
rtibia -4.26684
rfoot -17.5313 -15.6306
rtoes 16.2962
lfemur 1.66551 -0.589149 -23.4791
ltibia 0.0583828
lfoot -11.2119 -3.43994
ltoes 8.68439
241
root 10.8394 21.4497 16.329 6.33611 0.249389 7.15042
lowerback -8.47318 -2.83549 -7.94448
upperback -1.73211 -3.01767 -1.26586
thorax 3.28368 -1.56802 2.79025
lowerneck 8.45433 -14.2903 -10.2192
upperneck -0.779354 -19.882 10.4737
head 0.497181 -10.1473 4.72427
rclavicle -1.37721e-014 -4.69132e-014
rhumerus -36.9252 6.27168 -90.8417
rradius 25.2017
rwrist 7.70898
rhand -5.9116 -41.7813
rfingers 7.12502
rthumb 19.9173 -70.7806
lclavicle -1.37721e-014 -4.69132e-014
lhumerus -31.9094 3.20601 87.8878
lradius 21.076
lwrist 1.89757
lhand 0.512911 -13.9616
lfingers 7.12502
lthumb 26.0816 14.2677
rfemur 5.8313 7.36938 7.74538
rtibia -4.27279
rfoot -17.5298 -15.6688
rtoes 16.2701
lfemur 1.71135 -0.641888 -23.4644
ltibia -0.0443914
lfoot -11.1837 -3.33881
ltoes 8.81717
242
root 10.8382 21.4496 16.3296 6.33993 0.230249 7.12379
lowerback -8.47352 -2.78725 -7.88186
upperback -1.73618 -2.9588 -1.2856
thorax 3.26911 -1.53763 2.74246
lowerneck 8.3546 -13.9893 -9.99664
upperneck -0.942203 -19.4394 10.4528
head 0.395269 -9.92398 4.71146
rclavicle 4.50356e-014 -8.34896e-015
rhumerus -36.9498 6.08825 -90.8076
rradius 25.2194
rwrist 7.76549
rhand -5.98109 -41.7143
rfingers 7.12502
rthumb 19.8505 -70.7206
lclavicle 4.50356e-014 -8.34896e-015
lhumerus -31.9139 2.92339 87.9769
lradius 21.1013
lwrist 2.04519
lhand 0.477829 -13.9285
lfingers 7.12502
lthumb 26.048 14.3057
rfemur 5.82377 7.42192 7.7907
rtibia -4.27567
rfoot -17.5271 -15.7006
rtoes 16.2126
lfemur 1.76505 -0.710208 -23.4365
ltibia -0.159949
lfoot -11.1648 -3.2277
ltoes 8.99919
243
root 10.837 21.4495 16.3302 6.34368 0.212019 7.09706
lowerback -8.48185 -2.72844 -7.80843
upperback -1.73514 -2.88545 -1.31503
thorax 3.26198 -1.50029 2.67988
lowerneck 8.28727 -13.6294 -9.76317
upperneck -1.19922 -18.9141 10.5039
head 0.258976 -9.66197 4.72614
rclavicle 3.43758e-014 -1.60022e-014
rhumerus -36.9698 5.85396 -90.766
rradius 25.2389
rwrist 7.83184
rhand -6.01639 -41.6689
rfingers 7.12502
rthumb 19.8166 -70.6786
lclavicle 3.43758e-014 -1.60022e-014
lhumerus -31.9112 2.61601 88.0683
lradius 21.1208
lwrist 2.18853
lhand 0.434077 -13.9066
lfingers 7.12502
lthumb 26.0061 14.3337
rfemur 5.81856 7.45976 7.83475
rtibia -4.27522
rfoot -17.5254 -15.7152
rtoes 16.2171
lfemur 1.81386 -0.78517 -23.4094
ltibia -0.264313
lfoot -11.1605 -3.12172
ltoes 9.19353
244
root 10.8361 21.4493 16.331 6.34765 0.198479 7.08118
lowerback -8.49222 -2.66183 -7.73246
upperback -1.73402 -2.80131 -1.35785
thorax 3.2544 -1.45751 2.60316
lowerneck 8.20224 -13.2095 -9.48212
upperneck -1.49171 -18.3001 10.5638
head 0.103415 -9.35613 4.73862
rclavicle -1.61668e-014 2.13694e-014
rhumerus -36.9942 5.59867 -90.7303
rradius 25.2645
rwrist 7.87873
rhand -6.0217 -41.6549
rfingers 7.12502
rthumb 19.8115 -70.6652
lclavicle -1.61668e-014 2.13694e-014
lhumerus -31.9084 2.30664 88.1505
lradius 21.1284
lwrist 2.30386
lhand 0.396571 -13.8972
lfingers 7.12502
lthumb 25.9702 14.3485
rfemur 5.81686 7.46602 7.86013
rtibia -4.27294
rfoot -17.5189 -15.7037
rtoes 16.286
lfemur 1.85033 -0.850277 -23.3974
ltibia -0.341099
lfoot -11.1639 -3.038
ltoes 9.32384
